<svg viewBox="0 0 24 24" xmlns="http://www.w3.org/2000/svg"><g fill="#000" fill-rule="evenodd"><path d="M7.69 13.39c-.65 0-1.17-.53-1.17-1.17 0-.65.52-1.17 1.16-1.17 .64 0 1.16.52 1.16 1.16 0 .64-.53 1.16-1.17 1.16Zm4.54 0c-.65 0-1.17-.53-1.17-1.17 0-.65.52-1.17 1.16-1.17 .64 0 1.16.52 1.16 1.16 0 .64-.53 1.16-1.17 1.16Zm3.37-1.17c0 .64.52 1.16 1.16 1.16 .64 0 1.16-.53 1.16-1.17 0-.65-.53-1.17-1.17-1.17 -.65 0-1.17.52-1.17 1.16Z"/><path fill="none" fill-rule="evenodd" stroke="#000" stroke-linecap="round" stroke-linejoin="round" stroke-width="2" d="M12.02 2C6.21 2 2 6.74 2 12.015c0 1.68.49 3.41 1.35 4.99 .16.26.18.59.07.9l-.67 2.24c-.15.54.31.94.82.78l2.02-.6c.55-.19.98.04 1.49.36 1.46.86 3.28 1.3 4.92 1.3 4.96 0 10-3.84 10-10.02 0-5.33-4.3-9.99-9.98-9.99Z"/></g></svg>